<svg width="512" height="512" viewBox="0 0 100 100" xmlns="http://www.w3.org/2000/svg"><g transform="scale(1.42) translate(-15 -15)"><rect width="70.2458" height="65.718" fill="#05070d" x="19.4049" y="16.947"/><g transform="rotate(50 50 50)"><rect x="42" y="35" width="16" height="30" fill="#4CC2FF" rx="1"/><rect x="18" y="44" width="22" height="12" fill="none" stroke="#4CC2FF" stroke-width="2"/><path d="M24 44v12M29 44v12M34 44v12" stroke="#4CC2FF" stroke-width="1"/><rect x="60" y="44" width="22" height="12" fill="none" stroke="#4CC2FF" stroke-width="2"/><path d="M66 44v12M71 44v12M76 44v12" stroke="#4CC2FF" stroke-width="1"/><rect x="40" y="47" width="2" height="6" fill="#4CC2FF"/><rect x="58" y="47" width="2" height="6" fill="#4CC2FF"/><path d="M50 35V5M50 35l8-27M50 35l4-25M50 35l-4-25" stroke="#4CC2FF" stroke-width="1.5" opacity=".6"/></g></g></svg>
